<svg xmlns="http://www.w3.org/2000/svg" width="200" height="200" viewBox="0 0 200 200">
  <!-- 背景圆形渐变 -->
  <defs>
    <radialGradient id="bgGradient" cx="50%" cy="50%" r="50%" fx="50%" fy="50%">
      <stop offset="0%" style="stop-color:#4A90E2;stop-opacity:0.9" />
      <stop offset="100%" style="stop-color:#7B68EE;stop-opacity:0.9" />
    </radialGradient>
    <linearGradient id="robotGradient" x1="0%" y1="0%" x2="100%" y2="100%">
      <stop offset="0%" style="stop-color:#FFFFFF" />
      <stop offset="100%" style="stop-color:#F0F0F0" />
    </linearGradient>
    <linearGradient id="arrowGradient" x1="0%" y1="0%" x2="100%" y2="0%">
      <stop offset="0%" style="stop-color:#FF6B6B" />
      <stop offset="100%" style="stop-color:#FF8E53" />
    </linearGradient>
  </defs>
  
  <!-- 主背景圆形 -->
  <circle cx="100" cy="100" r="95" fill="url(#bgGradient)" />
  
  <!-- 机器人头部 -->
  <rect x="60" y="60" width="80" height="60" rx="10" fill="url(#robotGradient)" stroke="#4A90E2" stroke-width="2" />
  
  <!-- 机器人眼睛 -->
  <circle cx="85" cy="85" r="8" fill="#4A90E2" />
  <circle cx="115" cy="85" r="8" fill="#4A90E2" />
  
  <!-- 机器人嘴巴 - 微笑曲线 -->
  <path d="M85 105 Q100 115 115 105" stroke="#4A90E2" stroke-width="2" fill="none" />
  
  <!-- 对话气泡 -->
  <path d="M125 70 L155 50 L155 90 Z" fill="white" opacity="0.9" stroke="#4A90E2" stroke-width="2" />
  
  <!-- 对话气泡内的省略号 -->
  <circle cx="135" cy="65" r="3" fill="#4A90E2" />
  <circle cx="145" cy="65" r="3" fill="#4A90E2" />
  <circle cx="155" cy="65" r="3" fill="#4A90E2" />
  
  <!-- 向上箭头 -->
  <path d="M90 140 L100 120 L110 140" stroke="url(#arrowGradient)" stroke-width="4" fill="none" stroke-linecap="round" stroke-linejoin="round" />
  <path d="M100 120 L100 155" stroke="url(#arrowGradient)" stroke-width="4" fill="none" stroke-linecap="round" stroke-linejoin="round" />
  
  <!-- 装饰点 -->
  <circle cx="55" cy="55" r="3" fill="white" opacity="0.7" />
  <circle cx="145" cy="45" r="2" fill="white" opacity="0.7" />
  <circle cx="160" cy="135" r="3" fill="white" opacity="0.7" />
  <circle cx="45" cy="145" r="2" fill="white" opacity="0.7" />
</svg>